<mxfile host="app.diagrams.net" modified="2024-04-25T11:03:20.536Z" agent="Mozilla/5.0 (Windows NT 10.0; Win64; x64) AppleWebKit/537.36 (KHTML, like Gecko) Chrome/120.0.0.0 YaBrowser/24.1.0.0 Safari/537.36" version="24.3.0" etag="t4hta5jpZk1Q4Tvp_k11" type="github">
  <diagram name="Страница — 1" id="UR4QcSMf_7yf_mD5jPQb">
    <mxGraphModel>
      <root>
        <mxCell id="0" />
        <mxCell id="1" parent="0" />
      </root>
    </mxGraphModel>
  </diagram>
</mxfile>
